<svg xmlns="http://www.w3.org/2000/svg" viewBox="0 0 320 560"><path id="jeonnam-boundary" d="M86.12,101.92L88.51,104.62L88.81,105.74L87.7,105.81L85.5,105.14L83.67,102.78L82.94,102.02L80.2,106.19L79.12,108.53L78.69,110.9L78.9,111.95L79.3,112.91L79.5,113.91L79.08,115.06L78.26,115.94L77.46,116.56L76.73,117.37L76.12,118.74L77.1,118.93L77.55,119.24L77.95,119.58L78.69,119.87L76.43,120.42L73.84,120.56L71.56,121.09L70.17,122.8L73.72,122.76L75.37,122.49L76.98,121.86L76.73,123.97L77.37,125.17L78.69,126.1L78.42,127.51L77.83,128.33L77.25,128.96L76.98,129.7L77.92,131.9L82.01,136.67L83.29,140.09L84.11,140.93L85.1,141.48L87.44,142.07L88.05,143.04L88.11,145.75L87.79,148.17L84.65,155.3L83.32,153.93L82.42,152.37L82.22,150.7L82.94,148.97L82,148.43L79.9,148.35L78.69,147.93L77.2,147.04L76.74,146.54L76.62,145.68L76.12,143.67L75.74,143.41L75.16,143.63L74.66,143.63L74.42,142.73L74.57,141.85L75.13,140.42L75.47,137.61L75.3,136.15L74.42,134.42L73.42,137.9L72.53,139.64L70.95,140.66L69.96,138.25L67.7,137.09L65.15,137.43L63.35,139.52L63.8,142.05L67.01,146.31L65.84,147.93L67.6,150.24L69.37,150.18L70.23,148.22L69.25,144.81L71.63,145.62L73.82,147.63L77.37,152.55L78.3,155.74L74.82,159.2L75.19,162.47L72.08,161.81L70.68,161.73L69.25,162.47L69.86,163.85L70.63,164.98L71.56,165.93L72.66,166.71L72.14,166.94L70.95,167.75L72.51,168.79L74.69,169.5L76.95,169.34L78.69,167.75L78.65,166.33L78.04,164.58L77.86,163.1L79.08,162.47L80.02,162.13L80.69,161.38L81.52,160.65L82.94,160.39L86.06,161.13L85.32,162.47L82.97,164.09L81.24,165.68L80.99,168.19L81.73,171.16L83.09,173.71L84.65,174.94L83.03,176.36L82.61,177.48L82.94,179.75L82.89,180.93L82.68,181.97L82.16,183.07L81.24,184.47L78.69,187.02L77.8,188.53L78.22,190.15L79.53,190.82L82.22,189.92L83.93,189.95L84.14,188.38L85.19,187.88L88.51,188.62L90.15,188.11L91.25,187.14L92.38,186.64L94.08,187.5L93.56,188.31L92.89,189.89L92.38,190.7L93.17,191.3L93.17,191.65L95.64,191.43L96.94,189.66L98.34,184.47L99.83,181.47L100.04,181.27L99.86,179.89L99.04,177.33L99.19,176.07L100.56,174.17L102.42,173.3L104.13,173.82L105.14,176.07L105.09,177.65L104.55,178.58L103.89,179.32L103.43,180.32L103.43,181.91L103.76,182.95L103.92,183.95L103.43,185.42L109.9,184.84L112.73,185.36L114.59,187.5L113.29,187.44L112.26,187.65L110.33,188.62L111.21,190.56L108.29,190.34L102.58,188.62L99.53,189.39L98.03,191.34L97.79,194.02L98.34,196.95L97.76,196.72L97.43,196.46L97.12,196.15L96.64,195.81L94.72,196.18L89.02,191.97L84.28,194.09L80.57,193.51L78.82,194.23L77.04,196.47L77.42,197.92L80.3,198.87L83.44,198.02L85.98,199.67L89.67,199.43L92.77,200.06L95.03,201.14L99.11,206.39L101.81,208.37L100.9,209.5L104.64,212.81L106.77,214.16L109.4,214.61L106.79,215.28L103.19,214.13L100.22,212.5L97.92,211.16L96.37,211.5L98.98,214.97L98.44,215.64L97.12,214.77L95.38,213.51L94.03,212.2L91.79,211.31L90.17,210.24L89.41,209.21L88.11,208.37L87.82,207.45L87.87,206.86L87.84,206.25L88.17,204.27L87.49,203.06L82.27,201.91L78.86,202.25L79.57,204.91L78.63,207.08L79.01,210.87L79.79,213.71L81.09,213.6L81.88,211.45L83.53,211.14L83.09,214.64L84.68,216.24L85.88,218.14L88.45,218.7L89.19,219.07L90.59,218.86L89.58,221.5L88.14,221.63L85.5,219.79L79.32,218.75L77.77,217.82L75.19,210.54L74.79,208.87L74.57,207.32L74.94,205.79L76.12,204.22L72.32,198.5L71.5,196.69L70.77,196.18L69.8,195.91L68.86,195.81L67.85,196.31L67.66,197.5L67.77,198.91L67.63,200.06L66.33,203.45L65.24,208.32L65.45,212.7L68.04,214.61L71.38,216.26L71.89,217.82L70.99,218.55L69.74,218.53L69.25,217.82L68.76,218.66L68.25,218.86L68.04,219.3L68.47,220.83L68.79,220.99L71.38,223.48L72.17,223.79L73.17,223.58L74.06,223.07L74.42,222.49L74.8,221.51L75.55,222.24L76.17,223.47L76.12,223.95L79.09,225.42L80.15,226.82L80.38,229.23L82.22,228.5L83.68,228.24L86.35,228.19L87.57,228.41L88.63,228.44L89.74,228.19L90.16,226.82L90.68,225.78L91.44,225.09L92.28,225.11L93.9,226.11L94.93,226.13L95.72,225.59L96.85,224.18L97.41,223.95L98.93,224.8L98.89,226.23L97.67,227.85L95.7,229.23L96.88,229.64L97.85,230.27L98.62,231.18L99.19,232.36L96.09,232.43L92.77,233.07L90.29,234.92L89.74,238.59L91.74,237.92L91.96,238.92L91.49,240.8L91.44,242.75L91.16,242.97L90.79,243.72L90.97,244.54L92.31,244.91L94.17,245.13L95.08,245.46L95.7,245.95L96.18,247.51L95.84,249.06L94.08,252.29L93.54,252.66L92.98,252.48L92.56,252.56L92.31,254.95L92.1,255.56L91.44,256.44L91.44,257.39L94.7,257.22L96.27,257.54L97.41,258.52L97.64,260.25L96.46,263.91L96.64,265.7L98.08,266L103.82,264.09L106.86,264.75L106.86,262.99L107.11,261.52L110.15,251.24L110.64,250.25L112.03,249.07L115.73,248.13L116.7,247.47L117.34,245.96L117.36,244.83L117.69,244.13L119.34,243.88L119.95,244.05L121.1,244.76L121.86,244.91L122.27,244.58L122.41,243.83L122.29,243.09L121.86,242.75L120.01,242.01L121.8,240.34L126.58,237.55L123.79,233.98L123.29,232.12L127.14,230.83L127.1,229.54L126.31,227.71L125.8,225.61L126.21,224.16L127.26,222.51L128.62,221.22L129.97,220.83L131.39,221.9L132.21,223.95L132.36,226.29L131.67,228.19L132.15,231.18L131.63,238.89L132.6,241.8L133.7,242.47L138.49,243.88L141.98,246.39L143.59,246.91L142.89,245.13L142.83,243.49L143.35,242L144.44,240.67L147.76,242.34L148.93,241.3L148.7,235.01L155.58,228.19L154.65,226.21L155.22,224.59L156.38,223.23L157.2,221.98L157.44,220.2L157.37,218.52L157.59,217.27L158.53,216.78L160.05,216.37L161.64,215.45L164.1,213.56L168.66,210.88L169.67,210.02L171.92,207.03L173.29,205.77L174.76,205.25L177.89,205.9L179.41,205.98L181.2,205.25L182.95,203.11L185.46,196.61L187.23,193.83L190.3,198.81L192.55,200.7L195.27,199.54L197.63,197.69L198.52,198.91L199.19,201.63L200.92,204.22L199.95,205.81L198.24,209.48L197.43,210.54L195.5,211.27L194.07,210.8L193.01,209.41L192.26,207.42L192.92,205.97L192.71,204.78L191.85,203.86L190.55,203.17L186.96,207.16L186.29,208.37L186.41,210.67L187.15,211.85L188.11,212.85L188.84,214.61L188.88,219.11L187.06,221.64L184,222.76L180.35,223.01L182.18,218.56L182.78,216.1L182.91,213.56L181.09,214.45L180.2,215.58L178.65,218.86L176.13,222.21L175.24,223.01L172.47,224.66L171.68,225.96L171.83,228.19L172.99,230.38L174.66,231.27L176.62,231.65L178.65,232.36L178.29,231.75L177.79,230.19L182.73,227.59L184.16,227.26L188.84,232.36L190.6,235.99L195.69,242.77L199.14,242.75L197.54,241L197.17,238.35L200.76,235.61L203.04,236.66L205.14,233.66L211.05,228.19L208.46,225.97L203.72,227.22L202.67,226.51L200.92,226.13L199.43,222.97L199.14,222.49L199.86,221.32L201.56,220.1L203.57,219.17L205.18,218.86L207.01,219.45L212.68,223.01L214.22,222.62L216.65,222.73L217.94,221.64L219.08,220.49L218.73,217.32L218.03,215.63L212.68,213.56L213.61,213.35L215.8,213.36L217.08,213.56L214.41,209.71L210.52,207.19L206.92,203.95L205.18,197.89L205.53,197.48L206.2,197.31L206.46,196.78L205.58,195.33L204.33,194.79L201.99,195.74L200.92,194.87L201.38,192.79L204.06,191.28L209.35,189.58L209.35,188.62L206.7,187.84L203.49,186.43L201.84,185.08L203.87,184.47L209.26,184.61L211.73,184.3L215.98,182.79L216.62,182.72L217.05,182.42L217.87,181.27L220,175.85L220.43,175.5L220.7,174.87L221.28,175.07L221.86,175.73L222.13,176.59L222.01,177.37L221.46,178.85L221.35,179.75L221.68,181.24L223.56,185.23L223.2,185.81L222.98,186.72L223.04,187.5L223.65,188.16L224.38,188.27L225.08,188.29L225.6,188.62L227.58,192.92L228.58,194.35L229.16,196.91L227.98,199.91L226.36,203.08L225.6,206.3L226.21,209.71L227.64,211.95L229.86,213.19L232.84,213.56L234.88,215.71L236.17,216.43L236.74,215.17L235.83,208.37L235.1,206.23L234.12,204.22L234.74,204.06L234.91,203.78L235.1,203.74L235.83,204.22L238.11,199.19L240.89,199.79L244.36,201.53L248.74,200.06L249.77,198.3L251.2,190.7L252.44,186.4L252.85,184.27L252.99,181.27L250.65,182.53L248.52,182.39L246.23,181.94L243.55,182.3L239.69,185.94L238.14,186.92L236.83,186.29L235.43,184.47L233.45,183.19L231.24,180.16L229.31,176.68L228.16,173.99L228.01,171.44L228.68,168.4L230.04,166.45L231.99,167.23L234.34,172.04L236.22,173.65L238.84,172.48L243.55,168.71L244.71,167.37L245.21,166.41L246.11,163.6L245.84,162.81L245.62,160.99L245.96,159.82L247.39,160.95L248.12,162.43L248.42,163.59L249.09,164.36L250.78,164.64L255.83,164.6L256.65,164.82L256.33,164.15L256.34,161.32L254.67,157.19L246.9,148.73L245.56,145.92L244.48,142.7L241.7,139.79L238.63,137.55L236.94,134.53L236.41,126.44L235.17,122.54L232.6,119.53L233.27,116.21L226.16,110.49L218.19,107.61L213.66,110.13L210.03,114.03L206.13,114.57L201.99,114.6L197.47,115.21L192.89,115.12L190.76,113.89L188.87,112.43L186.68,112.99L184.09,112.95L180.33,113.57L176.74,115.71L172.11,115.02L169.1,111.83L169.27,106.8L166.73,103.94L165.97,101.12L167.08,96.73L164.57,92.92L160.9,93.12L160,94.68L158.77,95.86L157.97,97.87L157.68,100.04L153.83,100.09L147.98,92.19L144.16,89.08L141.99,88.16L139.72,88L137.65,90.45L133.42,90.04L130.29,92.84L130.28,94.9L130.39,96.96L129.25,98.69L127.67,99.84L127.77,101.46L128.01,103.02L126.97,105.17L125.32,106.6L123.28,107.58L121.14,108.2L119.34,109.29L117.67,110.53L113.49,111.15L109.54,112.58L105.83,113.51L102.72,112.47L102.9,108.34L103.7,104.25L104.42,98.68L100.83,97.72L88.72,101.08L86.14,101.91L86.12,101.92ZM154.51,121.97L157.03,128.93L152.13,135.47L144.43,134.24L137.65,130.17L134.23,122.68L136.92,120.14L141.39,121.33L144.67,120.59L148.08,119.56L154.51,121.97Z" fill="#BBF7D0" fill-rule="evenodd" stroke="#16A34A" stroke-width="1.2" stroke-linejoin="round"/><g transform="translate(28,420) rotate(-22)"><ellipse cx="-5" cy="5" rx="4" ry="3.2" fill="#16A34A"></ellipse><ellipse cx="-5" cy="-3" rx="5.2" ry="3.8" fill="#16A34A"></ellipse><circle cx="-7.5" cy="-7.5" r="1.6" fill="#16A34A"></circle><circle cx="-5" cy="-8.8" r="1.8" fill="#16A34A"></circle><circle cx="-2.5" cy="-7.5" r="1.6" fill="#16A34A"></circle></g><g transform="translate(52,392) rotate(-22)"><ellipse cx="5" cy="5" rx="4" ry="3.2" fill="#16A34A"></ellipse><ellipse cx="5" cy="-3" rx="5.2" ry="3.8" fill="#16A34A"></ellipse><circle cx="2.5" cy="-7.5" r="1.6" fill="#16A34A"></circle><circle cx="5" cy="-8.8" r="1.8" fill="#16A34A"></circle><circle cx="7.5" cy="-7.5" r="1.6" fill="#16A34A"></circle></g><g transform="translate(74,362) rotate(-22)"><ellipse cx="-5" cy="5" rx="4" ry="3.2" fill="#16A34A"></ellipse><ellipse cx="-5" cy="-3" rx="5.2" ry="3.8" fill="#16A34A"></ellipse><circle cx="-7.5" cy="-7.5" r="1.6" fill="#16A34A"></circle><circle cx="-5" cy="-8.8" r="1.8" fill="#16A34A"></circle><circle cx="-2.5" cy="-7.5" r="1.6" fill="#16A34A"></circle></g><g transform="translate(98,332) rotate(-22)"><ellipse cx="5" cy="5" rx="4" ry="3.2" fill="#16A34A"></ellipse><ellipse cx="5" cy="-3" rx="5.2" ry="3.8" fill="#16A34A"></ellipse><circle cx="2.5" cy="-7.5" r="1.6" fill="#16A34A"></circle><circle cx="5" cy="-8.8" r="1.8" fill="#16A34A"></circle><circle cx="7.5" cy="-7.5" r="1.6" fill="#16A34A"></circle></g><g transform="translate(118,300) rotate(-22)"><ellipse cx="-5" cy="5" rx="4" ry="3.2" fill="#16A34A"></ellipse><ellipse cx="-5" cy="-3" rx="5.2" ry="3.8" fill="#16A34A"></ellipse><circle cx="-7.5" cy="-7.5" r="1.6" fill="#16A34A"></circle><circle cx="-5" cy="-8.8" r="1.8" fill="#16A34A"></circle><circle cx="-2.5" cy="-7.5" r="1.6" fill="#16A34A"></circle></g><g transform="translate(140,270) rotate(-22)"><ellipse cx="5" cy="5" rx="4" ry="3.2" fill="#16A34A"></ellipse><ellipse cx="5" cy="-3" rx="5.2" ry="3.8" fill="#16A34A"></ellipse><circle cx="2.5" cy="-7.5" r="1.6" fill="#16A34A"></circle><circle cx="5" cy="-8.8" r="1.8" fill="#16A34A"></circle><circle cx="7.5" cy="-7.5" r="1.6" fill="#16A34A"></circle></g><g transform="translate(155.06,109.61)"><g><circle cx="0" cy="0" r="16" fill="#FFFFFF"></circle><circle cx="0" cy="0" r="16" fill="none" stroke="#86EFAC" stroke-width="1.4"></circle><g><rect x="-9" y="-14" width="3.5" height="16" rx="1.75" fill="#4ADE80"></rect><rect x="-9" y="-9" width="3.5" height="1.5" rx="0.75" fill="#16A34A"></rect><rect x="-9" y="-3" width="3.5" height="1.5" rx="0.75" fill="#16A34A"></rect><rect x="-2" y="-16" width="3.5" height="18" rx="1.75" fill="#4ADE80"></rect><rect x="-2" y="-11" width="3.5" height="1.5" rx="0.75" fill="#16A34A"></rect><rect x="-2" y="-5" width="3.5" height="1.5" rx="0.75" fill="#16A34A"></rect><rect x="5" y="-13" width="3.5" height="15" rx="1.75" fill="#4ADE80"></rect><rect x="5" y="-8" width="3.5" height="1.5" rx="0.75" fill="#16A34A"></rect><path d="M-9,-14 C-12,-18 -17,-17 -15,-14" stroke="#4ADE80" stroke-width="1.2" fill="none" stroke-linecap="round"></path><path d="M-2,-16 C-5,-20 -10,-19 -8,-16" stroke="#4ADE80" stroke-width="1.2" fill="none" stroke-linecap="round"></path><path d="M5,-13 C2,-17 -3,-16 -1,-13" stroke="#4ADE80" stroke-width="1.2" fill="none" stroke-linecap="round"></path><text x="0" y="20" text-anchor="middle" font-size="7.5" font-weight="800" fill="#166534" font-family="&#x27;Pretendard Variable&#x27;,Pretendard,sans-serif">담양</text></g></g></g><g transform="translate(166.28,193.3)"><g><circle cx="0" cy="0" r="16" fill="#FFFFFF"></circle><circle cx="0" cy="0" r="16" fill="none" stroke="#86EFAC" stroke-width="1.4"></circle><g><path d="M-13,4 C-9,-5 -4,-11 0,-12 C4,-11 9,-5 13,4 Z" fill="#22C55E"></path><path d="M-10,0 C-6,-7 -3,-10 0,-11 C3,-10 6,-7 10,0" stroke="#15803D" stroke-width="1" fill="none"></path><path d="M-7,-4 C-4,-8 -2,-10 0,-10 C2,-10 4,-8 7,-4" stroke="#15803D" stroke-width="1" fill="none"></path><rect x="-13" y="4" width="26" height="3" rx="1.5" fill="#166534"></rect><text x="0" y="20" text-anchor="middle" font-size="7.5" font-weight="800" fill="#166534" font-family="&#x27;Pretendard Variable&#x27;,Pretendard,sans-serif">보성</text></g></g></g><g transform="translate(242.57,202.82)"><g><circle cx="0" cy="0" r="16" fill="#FFFFFF"></circle><circle cx="0" cy="0" r="16" fill="none" stroke="#86EFAC" stroke-width="1.4"></circle><g><path d="M-13,3 C-9,-7 9,-7 13,3" stroke="#166534" stroke-width="2" fill="none" stroke-linecap="round"></path><line x1="-13" y1="3" x2="13" y2="3" stroke="#166534" stroke-width="2" stroke-linecap="round"></line><line x1="-5" y1="3" x2="-4" y2="-2" stroke="#166534" stroke-width="1.2" stroke-linecap="round"></line><line x1="0" y1="3" x2="0" y2="-5" stroke="#166534" stroke-width="1.2" stroke-linecap="round"></line><line x1="5" y1="3" x2="4" y2="-2" stroke="#166534" stroke-width="1.2" stroke-linecap="round"></line><circle cx="-13" cy="5" r="1.8" fill="#166534"></circle><circle cx="13" cy="5" r="1.8" fill="#166534"></circle><text x="0" y="20" text-anchor="middle" font-size="7.5" font-weight="800" fill="#166534" font-family="&#x27;Pretendard Variable&#x27;,Pretendard,sans-serif">여수</text></g></g></g><g transform="translate(80.28,187.21)"><g><circle cx="0" cy="0" r="16" fill="#FFFFFF"></circle><circle cx="0" cy="0" r="16" fill="none" stroke="#86EFAC" stroke-width="1.4"></circle><g><rect x="-5" y="-13" width="10" height="15" rx="2.5" fill="#fff"></rect><rect x="-5" y="-13" width="10" height="4" rx="1.5" fill="#EF4444"></rect><rect x="-3" y="-4" width="6" height="2" fill="#ccc"></rect><rect x="-3" y="0" width="6" height="2" fill="#ccc"></rect><rect x="-6" y="-15" width="12" height="3" rx="1" fill="#fff"></rect><circle cx="0" cy="-17" r="3.5" fill="#FCD34D"></circle><line x1="0" y1="-21" x2="0" y2="-24" stroke="#FCD34D" stroke-width="1.4" stroke-linecap="round"></line><line x1="3" y1="-20" x2="5" y2="-23" stroke="#FCD34D" stroke-width="1.4" stroke-linecap="round"></line><line x1="-3" y1="-20" x2="-5" y2="-23" stroke="#FCD34D" stroke-width="1.4" stroke-linecap="round"></line><text x="0" y="20" text-anchor="middle" font-size="7.5" font-weight="800" fill="#166534" font-family="&#x27;Pretendard Variable&#x27;,Pretendard,sans-serif">목포</text></g></g></g><g transform="translate(215.63,163.04)"><g><circle cx="0" cy="0" r="16" fill="#FFFFFF"></circle><circle cx="0" cy="0" r="16" fill="none" stroke="#86EFAC" stroke-width="1.4"></circle><g><line x1="-9" y1="4" x2="-9" y2="-10" stroke="#86EFAC" stroke-width="1.4" stroke-linecap="round"></line><ellipse cx="-9" cy="-12" rx="2" ry="4" fill="#4ADE80"></ellipse><line x1="-3" y1="4" x2="-3" y2="-7" stroke="#86EFAC" stroke-width="1.4" stroke-linecap="round"></line><ellipse cx="-3" cy="-9" rx="1.6" ry="3" fill="#4ADE80"></ellipse><path d="M3,-12 C7,-14 11,-11 9,-8 C8,-6 6,-7 5,-5 L2,0 L5,4" stroke="#166534" stroke-width="1.6" fill="none" stroke-linecap="round" stroke-linejoin="round"></path><circle cx="10" cy="-10" r="2.2" fill="#166534"></circle><path d="M11,-10 L16,-9" stroke="#166534" stroke-width="1.4" stroke-linecap="round"></path><text x="2" y="20" text-anchor="middle" font-size="7.5" font-weight="800" fill="#166534" font-family="&#x27;Pretendard Variable&#x27;,Pretendard,sans-serif">순천만</text></g></g></g></svg>